<svg xmlns="http://www.w3.org/2000/svg" xmlns:xlink="http://www.w3.org/1999/xlink" viewBox="0 0 95.481 82.2639654636636" height="82.2639654636636" width="95.481" data-background-color="#ffffff" preserveAspectRatio="xMidYMid meet" id="tight-bounds"><g><svg viewBox="0 0 95.481 82.2639654636636" height="82.2639654636636" width="95.481"><g><svg viewBox="0 0 95.481 82.2639654636636" height="82.2639654636636" width="95.481"><g id="textblocktransform"><svg viewBox="0 0 95.481 82.2639654636636" height="82.2639654636636" width="95.481" id="textblock"><g><svg viewBox="0 0 95.481 82.2639654636636" height="82.2639654636636" width="95.481"><g><svg viewBox="0 0 95.481 82.2639654636636" height="82.2639654636636" width="95.481"><g><svg xmlns="http://www.w3.org/2000/svg" xml:space="preserve" viewBox="12.92100715637207 18.03925132751465 74.15524291992188 63.89024353027344" x="0" y="0" height="82.2639654636636" width="95.481" class="icon-icon-0" data-fill-palette-color="accent" id="icon-0" fill="#ffffff"><path d="M22.58 54.252c7.811-7.81 20.475-7.81 28.284 0L68.542 71.93a5 5 0 0 0 7.07-7.072L54.399 43.645c-5.855-5.856-5.859-15.354 0-21.213s15.357-5.855 21.213 0a9.95 9.95 0 0 1 2.928 7.071c0 3.701 2.01 6.926 5 8.659a9.96 9.96 0 0 1-5 1.34c-5.523 0-9.998-4.475-9.998-9.999a5 5 0 0 0-7.072 0 5 5 0 0 0 0 7.071l21.215 21.213c5.855 5.855 5.855 15.357 0 21.213-3.906 3.904-10.234 3.908-14.143 0-3.906 3.904-10.234 3.908-14.143 0a10 10 0 0 1-14.142 0 10 10 0 0 1-14.143 0 9.9 9.9 0 0 1-2.586-4.484 9.99 9.99 0 0 0 9.657-2.586l3.536-3.537c3.904-3.904 10.234-3.908 14.142 0l-7.071-7.07c-3.908-3.908-10.236-3.904-14.142 0a10 10 0 0 1-14.143 0 9.9 9.9 0 0 1-2.586-4.484c3.338 0.89 7.042 0.03 9.659-2.587" fill="#ffffff" data-fill-palette-color="accent"/></svg></g></svg></g></svg></g></svg></g></svg></g><g/></svg></g><defs/></svg>